#!OML:ASF G:\ViconDB\ViconDB\414\test\team2\shane.ASF
:FULLY-SPECIFIED
:DEGREES
157
root 4.1813 17.0591 17.6933 -4.62873 3.93158 -8.07785
lowerback 7.41195 -3.77028 0.943751
upperback 2.24277 -4.8587 4.35317
thorax -1.52045 -2.44212 4.38452
lowerneck -16.6717 -2.88035 -11.6242
upperneck 23.7584 -2.99555 8.33207
head 10.6951 -1.44401 4.56013
rclavicle -8.27887e-015 -1.82835e-014
rhumerus -80.8737 20.9525 -89.111
rradius 69.7881
rwrist 28.951
rhand -43.0989 -14.9303
rfingers 7.12502
rthumb -15.9536 -44.2933
lclavicle -7.37988e-015 -2.76311e-014
lhumerus -38.8355 -21.6602 108.021
lradius 87.7705
lwrist -18.2407
lhand -51.877 6.17528
lfingers 7.12502
lthumb -24.3896 34.6431
rfemur -36.0984 -35.1292 37.6108
rtibia 35.8529
rfoot -3.96932 19.6259
rtoes -11.9402
lfemur 32.5716 0.108965 -3.30745
ltibia 24.7316
lfoot 7.35197 -10.3259
ltoes -10.364
158
root 4.18964 16.9786 18.2559 -6.70816 6.42661 -2.8123
lowerback 8.74989 -4.08455 -3.9106
upperback 2.78481 -5.70275 2.70017
thorax -1.32996 -2.88244 5.5239
lowerneck -16.5892 -2.94722 -11.5227
upperneck 23.985 -3.03357 7.9396
head 10.7613 -1.50339 4.39793
rclavicle -8.27887e-015 -1.82835e-014
rhumerus -80.8737 20.9525 -89.111
rradius 69.7881
rwrist 28.951
rhand -43.0989 -14.9303
rfingers 7.12502
rthumb -15.9536 -44.2933
lclavicle -5.14355e-015 6.95746e-015
lhumerus -39.7718 -21.6679 107.914
lradius 87.0475
lwrist -17.8712
lhand -51.7064 5.9849
lfingers 7.12502
lthumb -24.226 34.4746
rfemur -33.8442 -39.8675 30.6952
rtibia 35.7077
rfoot -2.93398 20.9641
rtoes -13.9153
lfemur 33.567 -1.88625 -8.59777
ltibia 29.1612
lfoot 6.34467 -7.9842
ltoes -9.90613
159
root 4.17634 16.9265 18.7678 -7.04835 6.51703 -2.92942
lowerback 8.72859 -3.98191 -3.66641
upperback 2.75918 -5.54305 2.77243
thorax -1.38106 -2.79976 5.45035
lowerneck -16.6643 -3.04858 -11.4512
upperneck 24.2627 -3.11321 7.61894
head 10.8836 -1.57435 4.26323
rclavicle -8.27887e-015 -1.82835e-014
rhumerus -80.8737 20.9525 -89.111
rradius 69.7881
rwrist 28.951
rhand -43.0989 -14.9303
rfingers 7.12502
rthumb -15.9536 -44.2933
lclavicle -1.21383e-014 3.57812e-015
lhumerus -40.5849 -21.5392 107.666
lradius 86.0013
lwrist -17.9472
lhand -51.3283 5.69236
lfingers 7.12502
lthumb -23.8635 34.2299
rfemur -32.7397 -39.3464 30.327
rtibia 35.4893
rfoot -2.90729 20.1564
rtoes -14.676
lfemur 32.2457 -2.17065 -7.8197
ltibia 34.067
lfoot 5.63575 -6.07711
ltoes -8.79201
160
root 4.17146 16.8521 19.2698 -7.20874 6.27795 -3.07034
lowerback 8.59386 -3.82386 -3.44005
upperback 2.7143 -5.30674 2.96223
thorax -1.38428 -2.68101 5.49456
lowerneck -16.711 -3.1569 -11.5528
upperneck 24.3421 -3.15399 7.32447
head 10.9268 -1.63779 4.16683
rclavicle -8.27887e-015 -1.82835e-014
rhumerus -80.8737 20.9525 -89.111
rradius 69.7881
rwrist 28.951
rhand -43.0989 -14.9303
rfingers 7.12502
rthumb -15.9536 -44.2933
lclavicle -7.76503e-015 -5.96354e-015
lhumerus -41.228 -21.1654 107.367
lradius 84.7353
lwrist -18.0312
lhand -51.0292 5.47572
lfingers 7.12502
lthumb -23.5767 34.0505
rfemur -31.0875 -36.2642 29.3008
rtibia 36.0135
rfoot -3.39778 17.5857
rtoes -15.4731
lfemur 30.7509 -1.94205 -6.93917
ltibia 38.8025
lfoot 4.70046 -5.17203
ltoes -8.39329
161
root 4.16956 16.7387 19.763 -7.83369 6.66428 -2.65164
lowerback 9.06251 -3.71368 -3.60865
upperback 2.78194 -5.18583 2.87918
thorax -1.57891 -2.61571 5.52902
lowerneck -16.8496 -3.29929 -11.5853
upperneck 24.4986 -3.25845 7.04838
head 11.0225 -1.72156 4.05818
rclavicle -8.27887e-015 -1.82835e-014
rhumerus -80.8737 20.9525 -89.111
rradius 69.7881
rwrist 28.951
rhand -43.0989 -14.9303
rfingers 7.12502
rthumb -15.9536 -44.2933
lclavicle -4.96216e-014 -1.98785e-014
lhumerus -41.9805 -21.1559 107.011
lradius 83.3464
lwrist -18.0959
lhand -50.9221 5.19142
lfingers 7.12502
lthumb -23.4739 33.7794
rfemur -28.4731 -33.6209 27.2208
rtibia 36.1323
rfoot -3.38425 14.8738
rtoes -15.8946
lfemur 29.2051 -2.39974 -6.85147
ltibia 44.2466
lfoot 3.5278 -4.47109
ltoes -7.48839
162
root 4.1649 16.6113 20.2426 -8.50281 7.22088 -2.51663
lowerback 9.81385 -3.68441 -3.69567
upperback 2.81854 -5.16906 2.96195
thorax -1.93993 -2.59724 5.72513
lowerneck -16.8714 -3.49108 -11.6155
upperneck 24.3948 -3.42402 6.71847
head 11.0041 -1.83644 3.91249
rclavicle -8.27887e-015 -1.82835e-014
rhumerus -80.8737 20.9525 -89.111
rradius 69.7881
rwrist 28.951
rhand -43.0989 -14.9303
rfingers 7.12502
rthumb -15.9536 -44.2933
lclavicle 5.2591e-014 -1.31198e-014
lhumerus -42.6166 -21.0791 106.674
lradius 81.7347
lwrist -17.9048
lhand -50.6603 5.27328
lfingers 7.12502
lthumb -23.2227 33.8931
rfemur -25.9405 -30.4752 25.4937
rtibia 36.6187
rfoot -3.07146 11.6963
rtoes -16.757
lfemur 27.354 -3.09763 -6.42225
ltibia 49.7126
lfoot 2.41239 -4.39647
ltoes -6.8963
163
root 4.18725 16.4431 20.7307 -8.99017 6.92376 -3.04189
lowerback 9.70616 -3.50161 -2.47864
upperback 2.98867 -4.80255 3.07916
thorax -1.84246 -2.41722 5.11207
lowerneck -17.0174 -3.71062 -11.9129
upperneck 24.4736 -3.6497 6.78331
head 11.0965 -1.95774 3.95506
rclavicle -8.27887e-015 -1.82835e-014
rhumerus -80.8737 20.9525 -89.111
rradius 69.7881
rwrist 28.951
rhand -43.0989 -14.9303
rfingers 7.12502
rthumb -15.9536 -44.2933
lclavicle 5.91012e-014 -1.51076e-014
lhumerus -43.1937 -21.1511 106.199
lradius 79.8487
lwrist -17.8924
lhand -50.3539 5.66349
lfingers 7.12502
lthumb -22.9288 34.3201
rfemur -24.2201 -29.3716 25.3706
rtibia 37.6304
rfoot -2.38555 12.1447
rtoes -10.6148
lfemur 25.5819 -2.84451 -5.09569
ltibia 54.9896
lfoot 0.933982 -4.8569
ltoes -7.08982
164
root 4.1943 16.2937 21.2067 -9.47072 7.42268 -3.18122
lowerback 10.053 -3.43671 -1.96514
upperback 3.05715 -4.66356 3.19487
thorax -2.00841 -2.34333 4.95489
lowerneck -17.0516 -3.96585 -12.144
upperneck 24.2158 -3.92868 6.78092
head 11.0452 -2.09979 3.94448
rclavicle -8.27887e-015 -1.82835e-014
rhumerus -80.8737 20.9525 -89.111
rradius 69.7881
rwrist 28.951
rhand -43.0989 -14.9303
rfingers 7.12502
rthumb -15.9536 -44.2933
lclavicle 1.25483e-014 -1.70955e-014
lhumerus -43.6139 -21.38 105.83
lradius 77.8129
lwrist -16.7565
lhand -50.1895 4.76751
lfingers 7.12502
lthumb -22.7709 33.4436
rfemur -22.4659 -28.6922 24.6407
rtibia 38.7196
rfoot -7.33367 15.3756
rtoes -2.83249
lfemur 23.3742 -3.46778 -4.38796
ltibia 60.0779
lfoot -0.323326 -5.61306
ltoes -6.62303
165
root 4.21555 16.1376 21.7022 -10.098 7.27824 -3.57168
lowerback 10.1213 -3.27541 -1.00391
upperback 3.21185 -4.34943 3.3663
thorax -1.97556 -2.18679 4.55942
lowerneck -16.6633 -4.15211 -12.2667
upperneck 23.6289 -4.10207 6.46698
head 10.7705 -2.22102 3.81018
rclavicle 5.35476e-014 -5.40694e-014
rhumerus -70.6089 17.8377 -90.8077
rradius 89.1959
rwrist 26.4856
rhand -47.1644 -20.615
rfingers 7.12502
rthumb -19.8653 -49.6197
lclavicle 5.35476e-014 -5.40694e-014
lhumerus -44.0122 -21.3862 105.495
lradius 75.5523
lwrist -16.1133
lhand -49.6971 4.90281
lfingers 7.12502
lthumb -22.2983 33.6362
rfemur -20.772 -28.2631 24.4275
rtibia 40.7124
rfoot -10.3374 14.9557
rtoes 2.40895
lfemur 21.6285 -3.39375 -3.32872
ltibia 64.6433
lfoot -1.79594 -6.80683
ltoes -6.96836
166
root 4.21555 16.1376 21.7022 -10.098 7.27824 -3.57168
lowerback 10.1213 -3.27541 -1.00391
upperback 3.21185 -4.34943 3.3663
thorax -1.97556 -2.18679 4.55942
lowerneck -16.6633 -4.15211 -12.2667
upperneck 23.6289 -4.10207 6.46698
head 10.7705 -2.22102 3.81018
rclavicle 5.35476e-014 -5.40694e-014
rhumerus -70.6089 17.8377 -90.8077
rradius 89.1959
rwrist 26.4856
rhand -47.1644 -20.615
rfingers 7.12502
rthumb -19.8653 -49.6197
lclavicle 5.35476e-014 -5.40694e-014
lhumerus -44.0122 -21.3862 105.495
lradius 75.5523
lwrist -16.1133
lhand -49.6971 4.90281
lfingers 7.12502
lthumb -22.2983 33.6362
rfemur -20.772 -28.2631 24.4275
rtibia 40.7124
rfoot -10.3374 14.9557
rtoes 2.40895
lfemur 21.6285 -3.39375 -3.32872
ltibia 64.6433
lfoot -1.79594 -6.80683
ltoes -6.96836
167
root 4.15803 16.005 22.6761 -10.4937 6.69958 -5.18883
lowerback 10.0545 -2.57599 0.285293
upperback 3.13003 -3.26489 4.20866
thorax -2.13731 -1.6414 4.59701
lowerneck -15.0603 -4.69722 -12.5251
upperneck 22.1821 -4.92652 6.30996
head 10.0339 -2.6367 3.66227
rclavicle 3.41785e-014 -1.82882e-014
rhumerus -65.3337 16.9991 -89.8545
rradius 88.0666
rwrist 30.6651
rhand -49.021 -23.5395
rfingers 7.12502
rthumb -21.6491 -52.3492
lclavicle 3.41785e-014 -1.82882e-014
lhumerus -44.2481 -21.565 104.888
lradius 69.2036
lwrist -15.975
lhand -49.4183 4.8257
lfingers 7.12502
lthumb -22.0307 33.5909
rfemur -20.4535 -26.4047 26.5649
rtibia 48.1161
rfoot -17.0365 9.10089
rtoes -0.411914
lfemur 16.7965 -3.07058 -0.0106436
ltibia 71.6655
lfoot -3.4751 -10.4108
ltoes -7.33788
168
root 4.17077 15.9222 23.1392 -10.6562 7.41743 -6.78597
lowerback 9.68496 -2.75156 2.11909
upperback 3.15072 -3.31804 4.72347
thorax -1.9813 -1.66575 4.08773
lowerneck -14.5968 -4.78419 -12.7732
upperneck 21.9367 -5.15911 6.79302
head 9.90257 -2.71482 3.84663
rclavicle -2.69726e-014 -3.97569e-015
rhumerus -61.5181 16.5023 -89.064
rradius 86.0286
rwrist 33.7544
rhand -50.2499 -26.3282
rfingers 7.12502
rthumb -22.829 -54.9971
lclavicle -2.69726e-014 -3.97569e-015
lhumerus -43.7271 -21.3151 104.401
lradius 65.0422
lwrist -16.6572
lhand -49.6302 5.13055
lfingers 7.12502
lthumb -22.2341 33.8717
rfemur -19.7588 -26.3599 27.9811
rtibia 50.5471
rfoot -19.6514 7.13287
rtoes -0.115459
lfemur 13.5097 -3.96819 2.08385
ltibia 75.2729
lfoot -5.19096 -12.0623
ltoes -7.05133
169
root 4.1545 15.8345 23.5559 -10.5663 7.47446 -7.0834
lowerback 9.6764 -2.42377 2.19151
upperback 3.20445 -2.8714 4.94269
thorax -1.93662 -1.44317 4.22577
lowerneck -14.5373 -5.16595 -12.712
upperneck 21.8573 -5.756 6.95283
head 9.93192 -2.96736 3.80992
rclavicle -1.79279e-014 -1.51076e-014
rhumerus -57.1492 16.3323 -88.4643
rradius 84.0304
rwrist 34.3104
rhand -51.3758 -28.57
rfingers 7.12502
rthumb -23.909 -57.1016
lclavicle -1.79279e-014 -1.51076e-014
lhumerus -43.0763 -21.4412 103.607
lradius 60.4827
lwrist -18.0347
lhand -50.3442 5.60338
lfingers 7.12502
lthumb -22.9194 34.2612
rfemur -18.793 -25.046 28.1264
rtibia 52.0213
rfoot -21.6077 5.60204
rtoes -1.11597
lfemur 10.0983 -3.8771 2.82861
ltibia 78.562
lfoot -6.78592 -13.0642
ltoes -6.71401
